# xmcd
#
# Track frame offsets:
#  150
#  25331
#  54612
#  98148
#  142259
#  168241
#  205720
#  223321
#  248749
#
# Disc length: 3838 seconds
#
# Revision: 1
# Processed by: cddbd v1.5.2PL0 Copyright (c) Steve Scherf et al.
# Submitted via: Collectorz.com_Music_Collector 6.11
#
DISCID=840efc09
DTITLE=Eric Clapton - Superstar Concert Series - Live 1990 (2CDs)  [CD1)
DYEAR=1990
DGENRE=Blues
TTITLE0=Crossroads
TTITLE1=Lay Down Sally
TTITLE2=Old Love
TTITLE3=Wonderful Tonight
TTITLE4=Bell Bottom Blues
TTITLE5=I Shot The Sheriff
TTITLE6=Hard Times
TTITLE7=Holy Mother
TTITLE8=Layla
EXTD=
EXTT0=
EXTT1=
EXTT2=
EXTT3=
EXTT4=
EXTT5=
EXTT6=
EXTT7=
EXTT8=
PLAYORDER=
